name rise44.8762peak52.3436fall86.788.mot
datacolumns 19
datarows 21
range 18.25326300000000 18.28659500000000
endheader
time	ground_force1_vx	ground_force1_vy	ground_force1_vz	ground_force1_px	ground_force1_py	ground_force1_pz	ground_force2_vx	ground_force2_vy	ground_force2_vz	ground_force2_px	ground_force2_py	ground_force2_pz	ground_torque1_x	ground_torque1_y	ground_torque1_z	ground_torque2_x	ground_torque2_y	ground_torque2_z	
18.25326300000000	55.70643200000000	784.19087400000001	64.50630000000000	0.28418300000000	0.00000000000000	0.12263100000000	0.00000000000000	0.00000000000000	0.00000000000000	0.00000000000000	0.00000000000000	0.00000000000000	0.00000000000000	21.23631600000000	0.00000000000000	0.00000000000000	0.00000000000000	0.00000000000000	
18.25493900000000	54.97085600000000	786.94175399999995	64.71198600000000	0.28333200000000	0.00000000000000	0.12263400000000	0.00000000000000	0.00000000000000	0.00000000000000	0.00000000000000	0.00000000000000	0.00000000000000	0.00000000000000	21.36207700000000	0.00000000000000	0.00000000000000	0.00000000000000	0.00000000000000	
18.25659300000000	54.23175900000000	789.49619700000005	64.91101100000000	0.28248600000000	0.00000000000000	0.12263700000000	0.00000000000000	0.00000000000000	0.00000000000000	0.00000000000000	0.00000000000000	0.00000000000000	0.00000000000000	21.48557200000000	0.00000000000000	0.00000000000000	0.00000000000000	0.00000000000000	
18.25826600000000	53.48991800000000	791.85276999999996	65.10318200000000	0.28164300000000	0.00000000000000	0.12264000000000	0.00000000000000	0.00000000000000	0.00000000000000	0.00000000000000	0.00000000000000	0.00000000000000	0.00000000000000	21.60656900000000	0.00000000000000	0.00000000000000	0.00000000000000	0.00000000000000	
18.25993000000000	52.74605100000000	794.01040200000000	65.28824600000000	0.28080000000000	0.00000000000000	0.12264300000000	0.00000000000000	0.00000000000000	0.00000000000000	0.00000000000000	0.00000000000000	0.00000000000000	0.00000000000000	21.72480600000000	0.00000000000000	0.00000000000000	0.00000000000000	0.00000000000000	
18.26159400000000	52.00081300000000	795.96838900000000	65.46588199999999	0.27995800000000	0.00000000000000	0.12264700000000	0.00000000000000	0.00000000000000	0.00000000000000	0.00000000000000	0.00000000000000	0.00000000000000	0.00000000000000	21.83999600000000	0.00000000000000	0.00000000000000	0.00000000000000	0.00000000000000	
18.26326600000000	51.25480600000000	797.72640600000000	65.63571600000000	0.27911200000000	0.00000000000000	0.12265100000000	0.00000000000000	0.00000000000000	0.00000000000000	0.00000000000000	0.00000000000000	0.00000000000000	0.00000000000000	21.95182900000000	0.00000000000000	0.00000000000000	0.00000000000000	0.00000000000000	
18.26492500000000	50.50857200000000	799.28450999999995	65.79732000000000	0.27826300000000	0.00000000000000	0.12265500000000	0.00000000000000	0.00000000000000	0.00000000000000	0.00000000000000	0.00000000000000	0.00000000000000	0.00000000000000	22.05997800000000	0.00000000000000	0.00000000000000	0.00000000000000	0.00000000000000	
18.26659200000000	49.76260400000000	800.64314500000000	65.95022299999999	0.27740800000000	0.00000000000000	0.12265900000000	0.00000000000000	0.00000000000000	0.00000000000000	0.00000000000000	0.00000000000000	0.00000000000000	0.00000000000000	22.16409700000000	0.00000000000000	0.00000000000000	0.00000000000000	0.00000000000000	
18.26826000000000	49.01734200000000	801.80314699999997	66.09390900000000	0.27654600000000	0.00000000000000	0.12266300000000	0.00000000000000	0.00000000000000	0.00000000000000	0.00000000000000	0.00000000000000	0.00000000000000	0.00000000000000	22.26383000000000	0.00000000000000	0.00000000000000	0.00000000000000	0.00000000000000	
18.26992700000000	48.27318300000000	802.76574200000005	66.22783300000000	0.27567400000000	0.00000000000000	0.12266800000000	0.00000000000000	0.00000000000000	0.00000000000000	0.00000000000000	0.00000000000000	0.00000000000000	0.00000000000000	22.35881000000000	0.00000000000000	0.00000000000000	0.00000000000000	0.00000000000000	
18.27160000000000	47.53047600000000	803.53254700000002	66.35142000000000	0.27479100000000	0.00000000000000	0.12267200000000	0.00000000000000	0.00000000000000	0.00000000000000	0.00000000000000	0.00000000000000	0.00000000000000	0.00000000000000	22.44866600000000	0.00000000000000	0.00000000000000	0.00000000000000	0.00000000000000	
18.27325800000000	46.78953100000000	804.10556499999996	66.46407300000000	0.27389700000000	0.00000000000000	0.12267700000000	0.00000000000000	0.00000000000000	0.00000000000000	0.00000000000000	0.00000000000000	0.00000000000000	0.00000000000000	22.53302200000000	0.00000000000000	0.00000000000000	0.00000000000000	0.00000000000000	
18.27493200000000	46.05062000000000	804.48718699999995	66.56518300000000	0.27298800000000	0.00000000000000	0.12268100000000	0.00000000000000	0.00000000000000	0.00000000000000	0.00000000000000	0.00000000000000	0.00000000000000	0.00000000000000	22.61150700000000	0.00000000000000	0.00000000000000	0.00000000000000	0.00000000000000	
18.27659400000000	45.31398300000000	804.68017799999996	66.65413200000000	0.27206500000000	0.00000000000000	0.12268500000000	0.00000000000000	0.00000000000000	0.00000000000000	0.00000000000000	0.00000000000000	0.00000000000000	0.00000000000000	22.68375400000000	0.00000000000000	0.00000000000000	0.00000000000000	0.00000000000000	
18.27826200000000	44.57982500000000	804.68767800000001	66.73030100000000	0.27112500000000	0.00000000000000	0.12268900000000	0.00000000000000	0.00000000000000	0.00000000000000	0.00000000000000	0.00000000000000	0.00000000000000	0.00000000000000	22.74940400000000	0.00000000000000	0.00000000000000	0.00000000000000	0.00000000000000	
18.27992500000000	43.84832700000000	804.51318700000002	66.79307600000000	0.27016700000000	0.00000000000000	0.12269300000000	0.00000000000000	0.00000000000000	0.00000000000000	0.00000000000000	0.00000000000000	0.00000000000000	0.00000000000000	22.80811100000000	0.00000000000000	0.00000000000000	0.00000000000000	0.00000000000000	
18.28159500000000	43.11964400000000	804.16055900000003	66.84185500000000	0.26919000000000	0.00000000000000	0.12269600000000	0.00000000000000	0.00000000000000	0.00000000000000	0.00000000000000	0.00000000000000	0.00000000000000	0.00000000000000	22.85954500000000	0.00000000000000	0.00000000000000	0.00000000000000	0.00000000000000	
18.28326400000000	42.39391100000000	803.63398800000004	66.87605700000000	0.26819400000000	0.00000000000000	0.12269900000000	0.00000000000000	0.00000000000000	0.00000000000000	0.00000000000000	0.00000000000000	0.00000000000000	0.00000000000000	22.90339300000000	0.00000000000000	0.00000000000000	0.00000000000000	0.00000000000000	
18.28493000000000	41.67124400000000	802.93799600000000	66.89512200000000	0.26717700000000	0.00000000000000	0.12270100000000	0.00000000000000	0.00000000000000	0.00000000000000	0.00000000000000	0.00000000000000	0.00000000000000	0.00000000000000	22.93936700000000	0.00000000000000	0.00000000000000	0.00000000000000	0.00000000000000	
18.28659500000000	40.95174500000000	802.07741799999997	66.89852200000000	0.26613800000000	0.00000000000000	0.12270200000000	0.00000000000000	0.00000000000000	0.00000000000000	0.00000000000000	0.00000000000000	0.00000000000000	0.00000000000000	22.96720000000000	0.00000000000000	0.00000000000000	0.00000000000000	0.00000000000000	
